{"title":"Arrow Season 2 EP21 City of Blood WEB-DL","uid":10076830,"size":440131365,"categoryP":"video","categoryS":"tv_shows","magnet":"?xt=urn:btih:234bae6539a3a1ea105fdddb427ac3e1d52bc4cb&amp;dn=Arrow+Season+2+EP21+City+of+Blood+WEB-DL&amp;tr=udp%3A%2F%2Ftracker.openbittorrent.com%3A80&amp;tr=udp%3A%2F%2Fopen.demonii.com%3A1337&amp;tr=udp%3A%2F%2Ftracker.coppersurfer.tk%3A6969&amp;tr=udp%3A%2F%2Fexodus.desync.com%3A6969","seeders":5,"leechers":0,"uploader":"jmanwf","files":-1,"time":1398934877,"description":"After Slade threatens to take everything Oliver loves away, Oliver decides the \n\n\nfastest way to stop further bloodshed is to surrender to his enemy.\n\n\n\nFormat                                   : MPEG-4\nFormat profile                           : Base Media\nCodec ID                                 : isom\nFile size                                : 420 MiB\nDuration                                 : 42mn 24s\nOverall bit rate                         : 1 384 Kbps\nWriting application                      : Lavf54.59.106\n\nVideo\nID                                       : 1\nFormat                                   : AVC\nFormat/Info                              : Advanced Video Codec\nFormat profile                           : &lt;a class=&quot;__cf_email__&quot; href=&quot;/cdn-cgi/l/email-protection&quot; data-cfemail=&quot;89c1e0eee1c9c5baa7b8&quot;&gt;[email&amp;#160;protected]&lt;/a&gt;&lt;script cf-hash='f9e31' type=&quot;text/javascript&quot;&gt;\n/* &lt;![CDATA[ */!function(){try{var t=&quot;currentScript&quot;in document?document.currentScript:function(){for(var t=document.getElementsByTagName(&quot;script&quot;),e=t.length;e--;)if(t[e].getAttribute(&quot;cf-hash&quot;))return t[e]}();if(t&amp;&amp;t.previousSibling){var e,r,n,i,c=t.previousSibling,a=c.getAttribute(&quot;data-cfemail&quot;);if(a){for(e=&quot;&quot;,r=parseInt(a.substr(0,2),16),n=2;a.length-n;n+=2)i=parseInt(a.substr(n,2),16)^r,e+=String.fromCharCode(i);e=document.createTextNode(e),c.parentNode.replaceChild(e,c)}}}catch(u){}}();/* ]]&gt; */&lt;/script&gt;\nFormat settings, CABAC                   : Yes\nFormat settings, ReFrames                : 5 frames\nCodec ID                                 : avc1\nCodec ID/Info                            : Advanced Video Coding\nDuration                                 : 42mn 23s\nBit rate                                 : 1 315 Kbps\nWidth                                    : 1 280 pixels\nHeight                                   : 720 pixels\nDisplay aspect ratio                     : 16:9\nFrame rate mode                          : Variable\nFrame rate                               : 23.976 fps\nMinimum frame rate                       : 5.780 fps\nMaximum frame rate                       : 38.462 fps\nColor space                              : YUV\nChroma subsampling                       : 4:2:0\nBit depth                                : 8 bits\nScan type                                : Progressive\nBits/(Pixel*Frame)                       : 0.059\nStream size                              : 399 MiB (95%)\n\nAudio\nID                                       : 2\nFormat                                   : AAC\nFormat/Info                              : Advanced Audio Codec\nFormat profile                           : HE-AAC / LC\nCodec ID                                 : 40\nDuration                                 : 42mn 24s\nBit rate mode                            : Constant\nBit rate                                 : 64.0 Kbps\nChannel(s)                               : 2 channels\nChannel positions                        : Front: L R\nSampling rate                            : 48.0 KHz / 24.0 KHz\nCompression mode                         : Lossy\nStream size                              : 19.4 MiB (5%)\n\n\n","torrent":{"xt":"urn:btih:234bae6539a3a1ea105fdddb427ac3e1d52bc4cb","amp;dn":"Arrow+Season+2+EP21+City+of+Blood+WEB-DL","amp;tr":["udp%3A%2F%2Ftracker.openbittorrent.com%3A80","udp%3A%2F%2Fopen.demonii.com%3A1337","udp%3A%2F%2Ftracker.coppersurfer.tk%3A6969","udp%3A%2F%2Fexodus.desync.com%3A6969"],"infoHash":"234bae6539a3a1ea105fdddb427ac3e1d52bc4cb","infoHashBuffer":{"type":"Buffer","data":[35,75,174,101,57,163,161,234,16,95,221,219,66,122,195,225,213,43,196,203]},"announce":[],"urlList":[]}}